<?xml version="1.0" standalone="no"?>
<svg
  width="600"
  height="600"
  viewBox="0 0 600 600"
  xmlns="http://www.w3.org/2000/svg"
>
  <g transform="translate(300,300)">
    <path d="M106.2,-138.2C152.5,-112.6,215.1,-101.4,238.3,-68.4C261.5,-35.3,245.4,19.6,227.9,74.3C210.4,128.9,191.6,183.4,153.4,213.5C115.2,243.6,57.6,249.3,6.9,239.8C-43.9,230.4,-87.8,205.8,-124.9,175.4C-162,144.9,-192.3,108.6,-197.7,69.5C-203.2,30.4,-183.9,-11.5,-175.7,-63.4C-167.5,-115.2,-170.4,-176.9,-143,-208.7C-115.6,-240.4,-57.8,-242.2,-13.9,-223.1C30,-203.9,60,-163.9,106.2,-138.2Z" fill="#ad1457" />
  </g>
</svg>
  